<?xml version="1.0" encoding="UTF-8" standalone="no"?>
<!DOCTYPE svg PUBLIC "-//W3C//DTD SVG 1.1//EN" "http://www.w3.org/Graphics/SVG/1.1/DTD/svg11.dtd">
<svg width="100%" height="100%" viewBox="0 0 24 24" version="1.1" xmlns="http://www.w3.org/2000/svg" xmlns:xlink="http://www.w3.org/1999/xlink" xml:space="preserve" xmlns:serif="http://www.serif.com/" style="fill-rule:evenodd;clip-rule:evenodd;stroke-linejoin:round;stroke-miterlimit:2;">
    <g transform="matrix(0.0332485,0,0,0.0332485,3.80641,1.69961)">
        <g>
            <path d="M133.3,0C130.1,0.1 126.7,1.5 122.8,4.5C113.3,0.9 104.1,-0.4 95.8,7C83.1,5.4 78.9,8.7 75.8,12.7C73,12.6 54.9,9.8 46.6,22C25.7,19.6 19.1,34.1 26.6,47.7C22.3,54.2 17.9,60.6 27.9,73C24.4,79.9 26.6,87.4 34.9,96.5C32.7,106.2 37,113.1 44.8,118.4C43.4,131.7 57.2,139.4 61.3,142.2C62.9,149.9 66.2,157.2 82,161.3C84.6,172.8 94.1,174.8 103.3,177.3C72.9,194.7 46.9,217.6 47.1,273.7L42.7,281.5C7.9,302.4 -23.4,369.4 25.5,423.9C28.7,441 34.1,453.2 38.8,466.8C45.9,521.4 92.6,547 104.9,550C122.9,563.5 142.1,576.4 168.1,585.3C192.6,610.2 219.1,619.7 245.8,619.6L247,619.6C273.7,619.6 300.2,610.1 324.7,585.3C350.7,576.3 369.9,563.5 387.9,550C400.2,547 446.8,521.4 454,466.8C458.8,453.2 464.1,441 467.3,423.9C516.3,369.4 485,302.4 450.1,281.5L445.6,273.7C445.8,217.6 419.7,194.7 389.4,177.3C398.6,174.9 408.1,172.9 410.7,161.3C426.5,157.3 429.8,150 431.4,142.2C435.5,139.4 449.3,131.7 447.9,118.4C455.6,113.1 459.9,106.2 457.8,96.5C466.1,87.4 468.3,79.9 464.8,73C474.8,60.6 470.4,54.2 466.1,47.7C473.6,34.1 467,19.6 446.1,22C437.8,9.8 419.7,12.6 416.9,12.6C413.8,8.7 409.6,5.3 396.9,6.9C388.7,-0.5 379.4,0.8 369.9,4.4C358.6,-4.4 351.1,2.7 342.6,5.3C328.6,1 325.4,7 318.7,9.5C303.8,6.4 299.2,13.2 292.1,20.3L291.6,20.1C289.1,18.9 286.3,19 283.8,20.2C261.3,33.3 250.1,59.9 246.2,73.5C242.2,59.8 231.1,33.2 208.6,20.2L208.2,20C205.7,18.9 202.8,19 200.4,20.3L200.3,20.4C193.1,13.3 188.6,6.5 173.7,9.6C167,7.1 163.9,1.1 150.2,5.5C144.6,3.8 141.3,-0.1 135.2,0.1L133.3,0Z" style="fill:rgb(2,2,3);fill-rule:nonzero;"/>
        </g>
        <path d="M88.9,57.7C148.6,88 183.3,112.5 202.3,133.4C192.6,171.8 141.8,173.6 123.2,172.5C127,170.8 130.2,168.7 131.3,165.5C126.6,162.2 110.1,165.2 98.6,158.8C103,157.9 105.1,157 107.2,153.8C96.3,150.4 84.6,147.4 77.7,141.8C81.4,141.8 84.9,142.6 89.8,139.3C80,134 69.6,129.9 61.5,122C66.5,121.9 72,122 73.6,120.1C64.7,114.6 57.1,108.6 50.9,102C58,102.8 60.9,102.1 62.7,100.9C55.9,94.1 47.4,88.3 43.3,79.9C48.5,81.7 53.3,82.4 56.8,79.7C54.5,74.6 44.7,71.6 39,59.7C44.5,60.2 50.4,60.9 51.5,59.7C48.9,49.4 44.5,43.6 40.2,37.6C52,37.4 69.9,37.6 69.1,36.7L61.8,29.3C73.3,26.2 85.1,29.8 93.7,32.4C97.5,29.4 93.6,25.6 88.9,21.8C98.7,23.1 107.6,25.3 115.6,28.4C119.9,24.6 112.8,20.8 109.4,17C124.6,19.8 131,23.8 137.4,27.8C142,23.4 137.7,19.7 134.5,15.9C145.9,20.1 151.8,25.4 158,30.8C160.1,28 163.3,26 159.4,19.2C167.5,23.8 173.6,29.2 178.1,35.3C183.1,32.2 181.1,27.8 181.1,23.9C189.5,30.7 194.9,37.8 201.4,44.9C202.7,44 203.9,40.7 204.9,35.7C225,54.9 253.4,103.3 212.2,122.5C177.3,93.9 135.4,73.2 88.9,57.7Z" style="fill:rgb(106,191,75);fill-rule:nonzero;"/>
        <path d="M405.1,57.7C345.4,88 310.7,112.5 291.7,133.4C301.4,171.8 352.2,173.6 370.8,172.5C367,170.8 363.8,168.7 362.7,165.5C367.4,162.2 383.9,165.2 395.4,158.8C391,157.9 388.9,157 386.8,153.8C397.7,150.4 409.4,147.4 416.3,141.8C412.6,141.8 409.1,142.6 404.2,139.3C414,134.1 424.4,130 432.5,122.1C427.5,122 422,122.1 420.4,120.2C429.3,114.7 436.9,108.7 443.1,102.1C436,102.9 433.1,102.2 431.3,101C438.1,94.2 446.6,88.4 450.7,80C445.5,81.8 440.7,82.5 437.2,79.8C439.5,74.7 449.3,71.7 455,59.8C449.5,60.3 443.6,61 442.5,59.8C445.1,49.5 449.5,43.7 453.8,37.7C442,37.5 424.1,37.7 424.9,36.8L432.2,29.4C420.7,26.3 408.8,29.9 400.3,32.5C396.5,29.5 400.4,25.7 405.1,21.9C395.3,23.2 386.4,25.4 378.4,28.5C374.1,24.7 381.2,20.9 384.6,17.1C369.4,19.9 363,23.9 356.6,27.9C352,23.5 356.3,19.8 359.5,16C348.1,20.2 342.2,25.5 336,30.9C333.9,28.1 330.7,26.1 334.6,19.3C326.5,23.9 320.4,29.3 315.9,35.4C310.9,32.3 312.9,27.9 312.9,24C304.5,30.8 299.1,37.9 292.6,45C291.3,44.1 290.1,40.8 289.1,35.8C269,55 240.6,103.4 281.8,122.6C316.8,93.9 358.7,73.2 405.1,57.7Z" style="fill:rgb(106,191,75);fill-rule:nonzero;"/>
        <g>
            <path d="M319.2,449.1C319.4,485 287.6,514.2 248.1,514.4C208.6,514.6 176.4,485.7 176.2,449.8L176.2,449.1C176,413.2 207.8,384 247.3,383.8C286.8,383.6 319,412.5 319.2,448.4L319.2,449.1Z" style="fill:rgb(195,28,74);fill-rule:nonzero;"/>
            <g>
                <path d="M207.7,263.5C237.3,282.6 242.7,326 219.6,360.3C196.6,394.6 153.9,407 124.2,387.9C94.6,368.8 89.2,325.4 112.3,291.1C135.4,256.8 178.1,244.4 207.7,263.5Z" style="fill:rgb(195,28,74);fill-rule:nonzero;"/>
                <path d="M287.7,260.1C258.1,279.2 252.7,322.6 275.8,356.9C298.8,391.2 341.5,403.6 371.2,384.5C400.8,365.4 406.2,322 383.1,287.7C360,253.3 317.3,241 287.7,260.1Z" style="fill:rgb(195,28,74);fill-rule:nonzero;"/>
            </g>
            <g>
                <path d="M61.5,295C93.5,286.6 72.3,425.3 46.3,414C17.6,391.3 8.4,324.8 61.5,295Z" style="fill:rgb(195,28,74);fill-rule:nonzero;"/>
                <path d="M431.1,293.3C399.1,284.9 420.3,423.6 446.3,412.3C475,389.5 484.2,323.1 431.1,293.3Z" style="fill:rgb(195,28,74);fill-rule:nonzero;"/>
            </g>
            <path d="M323.8,189.7C379,180.5 424.9,212.8 423.1,271.8C421.3,294.4 303.5,193.1 323.8,189.7Z" style="fill:rgb(195,28,74);fill-rule:nonzero;"/>
            <path d="M171.3,188C116.1,178.8 70.2,211.1 72,270.1C73.9,292.7 191.7,191.3 171.3,188Z" style="fill:rgb(195,28,74);fill-rule:nonzero;"/>
            <path d="M247.4,174.2C214.5,173.4 182.8,198.3 182.8,212.7C182.7,230.3 208.8,248.3 247.7,248.7C287.3,249 312.6,234.3 312.8,216.2C312.8,195.7 276.6,173.9 247.4,174.2Z" style="fill:rgb(195,28,74);fill-rule:nonzero;"/>
            <path d="M249.9,534.5C278.6,533.3 317.2,543.6 317.2,557.3C317.7,570.6 282.2,600.7 248,600.2C212.5,601.7 177.7,571.5 178.1,561.1C177.6,545.8 221.4,533.8 249.9,534.5Z" style="fill:rgb(195,28,74);fill-rule:nonzero;"/>
            <g>
                <path d="M143.6,453.2C164,477.5 173.4,520.1 156.3,532.7C140.2,542.3 100.9,538.3 73.1,498.9C54.3,465.8 56.7,432.1 69.9,422.2C89.7,410.3 120.1,426.3 143.6,453.2Z" style="fill:rgb(195,28,74);fill-rule:nonzero;"/>
                <path d="M349.5,445.5C327.4,471 315.1,517.6 331.2,532.6C346.6,544.2 388.1,542.6 418.7,500.8C440.9,472.7 433.5,425.8 420.8,413.3C401.9,398.9 374.8,417.3 349.5,445.5Z" style="fill:rgb(195,28,74);fill-rule:nonzero;"/>
            </g>
        </g>
    </g>
</svg>
